<svg width="51" height="51" viewBox="0 0 51 51" fill="none" xmlns="http://www.w3.org/2000/svg">
<path d="M21.4453 19.074C22.3378 21.981 23.2558 24.888 24.1738 27.846H18.7678C19.6858 24.888 20.5528 21.981 21.4453 19.074Z" fill="#DB0643"/>
<path d="M38.25 0H12.75C9.36849 0 6.12548 1.3433 3.73439 3.73439C1.3433 6.12548 0 9.36849 0 12.75V38.25C0 41.6315 1.3433 44.8745 3.73439 47.2656C6.12548 49.6567 9.36849 51 12.75 51H38.25C41.6315 51 44.8745 49.6567 47.2656 47.2656C49.6567 44.8745 51 41.6315 51 38.25V12.75C51 9.36849 49.6567 6.12548 47.2656 3.73439C44.8745 1.3433 41.6315 0 38.25 0ZM31.8495 37.689H27.8715C27.7128 37.711 27.5518 37.6699 27.4231 37.5746C27.2944 37.4792 27.2082 37.3372 27.183 37.179C26.6985 35.751 26.1885 34.323 25.704 32.8695C25.6887 32.7784 25.6553 32.6912 25.6056 32.6133C25.556 32.5354 25.4912 32.4682 25.415 32.4159C25.3389 32.3635 25.253 32.3271 25.1624 32.3086C25.0719 32.2902 24.9786 32.2901 24.888 32.3085H18.105C18.0108 32.2863 17.913 32.2842 17.8179 32.3023C17.7228 32.3204 17.6326 32.3584 17.5532 32.4138C17.4738 32.4691 17.407 32.5406 17.3571 32.6235C17.3071 32.7064 17.2753 32.7989 17.2635 32.895C16.83 34.323 16.3455 35.7 15.912 37.128C15.8999 37.2181 15.8693 37.3047 15.8223 37.3825C15.7753 37.4603 15.7128 37.5276 15.6386 37.5802C15.5645 37.6329 15.4803 37.6697 15.3914 37.6884C15.3024 37.7071 15.2105 37.7073 15.1215 37.689H11.628C11.016 37.689 10.965 37.689 11.169 37.0515L16.677 21.165C17.187 19.7115 17.697 18.258 18.156 16.8045C18.2821 16.3734 18.3507 15.9276 18.36 15.4785C18.36 14.943 18.564 14.8155 19.0485 14.841H23.919C24.276 14.841 24.4545 14.841 24.582 15.3255L30.855 32.997C31.3395 34.374 31.824 35.7255 32.283 37.077C32.487 37.638 32.4615 37.689 31.8495 37.689ZM39.6525 37.2555C39.6525 37.689 39.474 37.8165 39.066 37.8165H35.394C34.884 37.8165 34.7565 37.6125 34.7565 37.1535V21.1395C34.7565 20.6295 34.9095 20.4255 35.445 20.451H39.0405C39.4485 20.451 39.6525 20.451 39.6525 21.012C39.6355 26.418 39.6355 31.8325 39.6525 37.2555ZM37.1025 18.6405C36.7371 18.6637 36.371 18.6079 36.0291 18.477C35.6872 18.3461 35.3775 18.1431 35.121 17.8818C34.8646 17.6205 34.6674 17.3071 34.5429 16.9628C34.4184 16.6185 34.3695 16.2514 34.3995 15.8865C34.4027 15.5238 34.4783 15.1654 34.6217 14.8323C34.7651 14.4991 34.9734 14.1979 35.2346 13.9462C35.4958 13.6945 35.8045 13.4974 36.1428 13.3665C36.481 13.2355 36.8419 13.1733 37.2045 13.1835C37.5573 13.1824 37.9064 13.2544 38.2299 13.3952C38.5533 13.5359 38.8441 13.7422 39.0838 14.001C39.3234 14.2598 39.5068 14.5656 39.6222 14.8989C39.7377 15.2322 39.7827 15.5859 39.7545 15.9375C39.7754 16.285 39.7249 16.6331 39.6061 16.9604C39.4874 17.2877 39.3028 17.5871 39.0639 17.8404C38.825 18.0936 38.5368 18.2952 38.217 18.4328C37.8972 18.5705 37.5526 18.6411 37.2045 18.6405H37.1025Z" fill="#DB0643"/>
<path d="M24.1738 27.846H18.7678C19.6858 24.888 20.5528 21.981 21.3178 19.074C22.3378 21.981 23.2558 24.888 24.1738 27.846Z" fill="#DB0643"/>
</svg>
