<svg width="65" height="65" viewBox="0 0 65 65" fill="none" xmlns="http://www.w3.org/2000/svg">
<path d="M27.4625 27.5601C27.5117 28.5469 27.2135 29.5197 26.6197 30.3094C26.0259 31.0992 25.1741 31.6558 24.2125 31.8826C22.516 32.3836 20.7466 32.5924 18.98 32.5001C18.525 32.5001 18.4925 32.2076 18.4925 31.8826V23.5951C18.4925 23.3676 18.72 22.9776 18.85 22.9776C20.7091 22.7694 22.5904 22.8904 24.4075 23.3351C25.322 23.5857 26.1234 24.1412 26.679 24.9096C27.2346 25.678 27.511 26.6131 27.4625 27.5601Z" fill="#FFAF1A"/>
<path d="M48.75 0H16.25C11.9402 0 7.80698 1.71205 4.75951 4.75951C1.71205 7.80698 0 11.9402 0 16.25V48.75C0 53.0598 1.71205 57.193 4.75951 60.2405C7.80698 63.288 11.9402 65 16.25 65H48.75C53.0598 65 57.193 63.288 60.2405 60.2405C63.288 57.193 65 53.0598 65 48.75V16.25C65 11.9402 63.288 7.80698 60.2405 4.75951C57.193 1.71205 53.0598 0 48.75 0ZM29.25 35.75C27.6098 36.7917 25.73 37.3959 23.79 37.505H19.435C18.525 37.505 18.525 37.505 18.525 38.3825V45.9225C18.525 46.5725 18.33 46.7675 17.68 46.7675H13.39C12.7725 46.7675 12.61 46.54 12.61 45.955V18.5575C12.61 17.9075 12.61 17.7125 13.4225 17.7125H23.595C25.4518 17.7628 27.2646 18.2888 28.86 19.24C30.2378 20.0164 31.385 21.1445 32.1843 22.5091C32.9837 23.8737 33.4066 25.426 33.41 27.0075C33.598 28.7074 33.3083 30.4261 32.5734 31.9704C31.8386 33.5148 30.6877 34.8236 29.25 35.75ZM48.49 46.475C45.6636 47.5762 42.5692 47.7915 39.6175 47.0925C38.7313 46.8975 37.8647 46.6375 37.0175 46.3125C36.8868 46.2512 36.772 46.1607 36.6819 46.048C36.5917 45.9353 36.5286 45.8034 36.4975 45.6625V40.755C37.5375 41.145 38.5125 41.6 39.52 41.925C41.2085 42.4647 42.9962 42.6201 44.7525 42.38C45.1035 42.315 45.4393 42.2067 45.76 42.055C45.9505 41.9716 46.116 41.8402 46.2406 41.6737C46.3651 41.5072 46.4444 41.3112 46.4706 41.105C46.4967 40.8987 46.469 40.6892 46.39 40.4968C46.3111 40.3045 46.1836 40.1359 46.02 40.0075C45.2765 39.4928 44.4814 39.0571 43.6475 38.7075C42.315 38.0575 40.95 37.5375 39.6825 36.79C38.5381 36.2332 37.6037 35.3222 37.0182 34.1922C36.4328 33.0622 36.2273 31.7735 36.4325 30.5175C36.5978 29.3087 37.1 28.1707 37.8816 27.2339C38.6633 26.2971 39.6928 25.5992 40.8525 25.22C42.9427 24.5132 45.173 24.3236 47.3525 24.6675C48.3925 24.6675 49.4 25.0575 50.44 25.2525C50.9925 25.2525 51.1875 25.7075 51.155 26.26V30.0625C51.155 30.7775 50.9925 30.8425 50.3425 30.5825C48.3126 29.6427 46.0689 29.2613 43.8425 29.4775C43.5271 29.5142 43.2197 29.602 42.9325 29.7375C42.7375 29.8141 42.5659 29.9402 42.4347 30.1035C42.3035 30.2667 42.2172 30.4614 42.1844 30.6683C42.1515 30.8752 42.1733 31.087 42.2475 31.2829C42.3217 31.4788 42.4458 31.6518 42.6075 31.785C43.5478 32.4112 44.5337 32.9528 45.565 33.41C46.8 34.0275 48.1 34.515 49.3025 35.1975C50.3937 35.694 51.2975 36.5263 51.8822 37.5729C52.4669 38.6195 52.7017 39.8255 52.5525 41.015C52.4498 42.2016 52.0096 43.334 51.284 44.2785C50.5583 45.2229 49.5776 45.94 48.4575 46.345L48.49 46.475Z" fill="#FFAF1A"/>
</svg>
