<svg width="33" height="53" viewBox="0 0 33 53" fill="none" xmlns="http://www.w3.org/2000/svg">
<path d="M6.56348 1.5C7.79868 1.48924 8.99087 1.9351 9.91504 2.74609L10.0967 2.91309L10.1055 2.92285L10.1152 2.93164L30.0312 22.9014C30.972 23.845 31.5 25.1245 31.5 26.457C31.4999 27.7894 30.9719 29.0682 30.0312 30.0117L10.1328 49.9619L10.1338 49.9629C9.67094 50.4434 9.11658 50.8269 8.50391 51.0908C7.89113 51.3548 7.2316 51.4942 6.56445 51.5C5.89726 51.5058 5.23548 51.3782 4.61816 51.125C4.00084 50.8718 3.43996 50.4979 2.96875 50.0254C2.4976 49.5529 2.12515 48.9909 1.87305 48.373C1.62102 47.7553 1.49422 47.093 1.5 46.4258C1.50584 45.7587 1.64458 45.0995 1.90723 44.4863C2.16663 43.8808 2.54201 43.3316 3.0127 42.8711L19.3828 26.4561L3.0127 10.042L3.00391 10.0322L2.99414 10.0234C2.08008 9.07448 1.5755 7.80392 1.58691 6.48633C1.59836 5.16877 2.12527 3.90751 3.05566 2.97461C3.98621 2.0416 5.24585 1.51149 6.56348 1.5Z" fill="#FFF599" stroke="#FFF599" stroke-width="3"/>
</svg>
