<svg width="52" height="54" viewBox="0 0 52 54" fill="none" xmlns="http://www.w3.org/2000/svg">
<path d="M26.919 0C22.045 0.000898194 17.2626 1.32859 13.0821 3.84146C8.9015 6.35433 5.47955 9.9581 3.18124 14.2684C0.882934 18.5786 -0.205518 23.4337 0.0319914 28.3157C0.269501 33.1977 1.82406 37.9234 4.52985 41.9889C7.23564 46.0543 10.9912 49.3069 15.3958 51.3998C19.8004 53.4926 24.689 54.3471 29.5399 53.8722C34.3909 53.3973 39.0223 51.6108 42.9402 48.7032C46.8581 45.7956 49.9154 41.8761 51.786 37.3626C52.7041 35.1486 50.5045 32.9238 48.2913 33.8256C44.4982 35.3664 40.2865 35.5254 36.3886 34.275C32.4907 33.0245 29.1531 30.4436 26.956 26.9811C24.759 23.5187 23.8415 19.3935 24.363 15.3229C24.8845 11.2523 26.8121 7.49376 29.8107 4.7007L30.018 4.4847C31.5015 2.7837 30.3222 0.0216 27.9772 0.0216H27.261L27.0779 0.00539993L26.919 0Z" fill="#FFAF1A"/>
</svg>
