<svg width="46" height="69" viewBox="0 0 46 69" fill="none" xmlns="http://www.w3.org/2000/svg">
<path d="M11.2754 0H22.4947V22.3617H11.2756C-3.51999 21.7853 -3.66942 0.605367 11.2754 0ZM11.2754 45.6798H22.4947V23.3181H11.2756C-3.66929 23.9235 -3.51999 45.1034 11.2754 45.6798ZM34.674 0H23.4544V22.3617H34.674C49.6686 21.562 49.4817 0.456451 34.674 0ZM22.4947 57.8171V46.6362H11.2756C2.1202 46.6362 -3.66929 57.3333 2.69804 65.0166C8.76881 72.6321 22.4948 68.8353 22.4948 57.8171M45.9162 34.4989C45.9162 25.9063 36.518 20.5069 29.0401 24.8032C21.5623 29.0995 21.5621 39.8984 29.0401 44.1948C36.5181 48.4911 45.9162 43.0916 45.9162 34.4989Z" fill="#59CE00"/>
</svg>
