<svg width="41" height="41" viewBox="0 0 41 41" fill="none" xmlns="http://www.w3.org/2000/svg">
<path d="M20.501 0C9.17421 0 7.62219e-06 9.40602 7.62219e-06 21.019C-0.00370437 25.4316 1.34847 29.7332 3.86456 33.3131C6.38064 36.893 9.93276 39.5692 14.0166 40.9619C15.0416 41.1448 15.427 40.5142 15.427 39.9614C15.427 39.4632 15.4004 37.809 15.4004 36.0476C10.2505 37.0208 8.91795 34.7613 8.50793 33.5779C8.27627 32.9726 7.27787 31.1082 6.40658 30.6079C5.68904 30.2149 4.66399 29.2417 6.37993 29.2165C7.99541 29.1891 9.14756 30.7403 9.53298 31.3709C11.3781 34.549 14.3241 33.6557 15.5029 33.105C15.6833 31.7387 16.2204 30.8202 16.8108 30.2947C12.2494 29.7693 7.48288 27.9553 7.48288 19.9155C7.48288 17.6287 8.27627 15.7391 9.58424 14.2677C9.37922 13.7422 8.66169 11.5878 9.78925 8.69768C9.78925 8.69768 11.5052 8.14488 15.427 10.85C17.0961 10.3763 18.8204 10.138 20.5523 10.1417C22.2949 10.1417 24.0375 10.3771 25.6775 10.85C29.5994 8.11755 31.3153 8.69768 31.3153 8.69768C32.4429 11.5878 31.7253 13.7422 31.5203 14.2677C32.8262 15.7391 33.6217 17.6034 33.6217 19.9155C33.6217 27.9826 28.8306 29.7693 24.2691 30.2947C25.0113 30.9505 25.6529 32.2117 25.6529 34.1833C25.6529 36.9935 25.6263 39.2531 25.6263 39.9635C25.6263 40.5142 26.0117 41.17 27.0368 40.9598C31.1052 39.5496 34.6403 36.8676 37.1449 33.2908C39.6495 29.7139 40.9978 25.4222 41 21.019C41 9.40602 31.8258 0 20.499 0" fill="#FFF599"/>
</svg>
