<svg width="74" height="77" viewBox="0 0 74 77" fill="none" xmlns="http://www.w3.org/2000/svg">
<path d="M0 0V77H74V0H0ZM40.2705 60.0531C40.2705 67.5469 36.042 70.9672 29.8808 70.9672C24.3143 70.9672 21.0933 67.9766 19.4415 64.35L25.1071 60.7922C26.1973 62.8031 27.1884 64.5047 29.5835 64.5047C31.8629 64.5047 33.3165 63.5766 33.3165 59.95V35.3547H40.2705V60.0531ZM56.7223 70.9672C50.2638 70.9672 46.0848 67.7703 44.0531 63.5766L49.7188 60.1734C51.2054 62.7 53.1545 64.5734 56.5737 64.5734C59.4478 64.5734 61.2978 63.0781 61.2978 60.9984C61.2978 58.5234 59.4147 57.6469 56.2268 56.1859L54.4924 55.4125C49.471 53.1953 46.1509 50.3937 46.1509 44.4984C46.1509 39.0672 50.1317 34.9422 56.3259 34.9422C60.7527 34.9422 63.9241 36.5406 66.2036 40.7344L60.7857 44.3438C59.5964 42.1266 58.308 41.25 56.3094 41.25C54.2777 41.25 52.9893 42.5906 52.9893 44.3438C52.9893 46.5094 54.2777 47.3859 57.2674 48.7438L59.0018 49.5172C64.9152 52.1469 68.2353 54.8453 68.2353 60.8953C68.2353 67.3922 63.3129 70.9672 56.7223 70.9672Z" fill="#FFAF1A"/>
</svg>
