<svg width="58" height="80" viewBox="0 0 58 80" fill="none" xmlns="http://www.w3.org/2000/svg">
<path d="M43.8565 16.5409L44.0601 16.6572C41.3054 18.111 33.4339 22.7996 33.4339 28.7675C33.4339 30.781 34.5859 32.7219 35.6652 34.5464C36.6174 36.1529 37.515 37.6649 37.515 39.046C37.515 42.5243 34.1244 45.2248 32.2092 46.4678L31.8458 46.257C32.569 45.3738 33.4593 43.8945 33.4593 42.3171C33.4593 40.1436 32.3437 38.4063 31.2135 36.6436C30.0433 34.8227 28.8585 32.9727 28.8585 30.5739C28.8585 22.2435 40.1788 17.773 43.8565 16.5409ZM28.9748 20.9459C33.5284 16.8752 38.5035 12.4265 38.5035 5.73533C38.5035 2.70774 37.2643 0.77416 36.6501 0L36.4502 0.112671C36.5956 0.716007 36.8136 1.82818 36.8136 3.282C36.8136 9.37351 31.6459 13.6405 26.6454 17.7766C21.9537 21.6583 17.4075 25.4164 17.4075 30.4467C17.4075 37.6612 24.5231 42.099 27.5285 43.9745L27.7574 44.1199L27.9391 44.0108C27.7768 43.8315 27.6048 43.6474 27.4231 43.4584C25.1118 40.9978 21.6012 37.2651 21.6012 31.5552C21.6012 27.5463 25.1372 24.3806 28.9748 20.9459ZM27.3359 56.9571C33.7464 56.9571 38.2309 56.0376 40.2224 55.4742L43.246 57.2188C40.3642 58.6835 33.9754 59.7993 27.3213 59.7993C19.4971 59.7993 10.9424 58.1202 10.9169 55.8813C10.8988 54.6455 13.697 53.8241 16.7133 53.2935L16.895 53.3989C16.895 53.3989 15.8739 53.766 15.8848 54.6092C15.8993 55.8813 21.0452 56.9571 27.3322 56.9571M14.5074 64.8477C14.5074 63.3685 17.5565 62.667 18.952 62.3871L19.1337 62.4962C18.8938 62.6742 18.763 62.9178 18.763 63.1249C18.763 64.0954 22.1427 64.9822 27.325 64.9822C31.9694 64.9822 34.5496 64.4116 36.0832 64.0445L39.6809 66.1271C39.5174 66.2434 35.9741 68.4714 27.3177 68.4714C21.027 68.4714 14.5074 66.9012 14.5074 64.8477ZM45.5028 58.5672C49.791 56.1211 54.0829 53.228 54.3264 48.5831C54.4863 45.5337 51.6844 43.2984 48.6209 43.8945L48.7844 43.4874V43.4802C49.5548 43.2476 50.507 43.0586 51.5718 43.0586C54.9987 43.0586 57.6262 45.1121 57.9605 47.987C58.6365 53.7514 50.467 57.5023 45.8916 58.7925L45.5028 58.5672ZM52.6802 69.4273C52.7165 73.3889 39.2412 75.7441 27.1978 75.8495C16.8006 75.9404 0.0363899 73.9777 4.88033e-05 70.016C-0.0217559 67.2792 7.26828 65.3856 11.2295 64.8404L11.6474 65.0767C11.6474 65.0767 5.74195 66.4469 5.76012 68.9366C5.78193 71.419 18.207 73.567 27.1796 73.4907C41.0801 73.3671 50.4888 71.1028 51.6008 68.0316L51.7971 67.9189C52.2041 68.2169 52.6693 68.7076 52.6802 69.4273ZM10.3936 77.496C15.5357 78.3176 20.7368 78.7127 25.944 78.6772C48.5046 78.4809 54.8715 72.9346 55.8527 71.7279L56.0236 71.8297C55.791 76.2202 43.8602 79.8693 29.1456 79.9965C21.6557 80.062 14.8381 79.1969 9.93935 77.7613L10.3936 77.496ZM19.8496 43.7564C15.9284 44.0581 7.50813 45.3047 7.50813 47.5218C7.50813 49.201 15.227 51.5671 27.3213 51.5671C38.2019 51.5671 45.0703 49.5135 46.673 48.7321L44.3362 47.3691C42.6646 47.8235 36.4538 49.2082 27.3213 49.2082C21.9428 49.2082 12.6758 48.216 12.6758 46.7004C12.6758 45.3411 18.4577 44.2943 20.1185 43.9926L20.2239 43.9745L19.8496 43.7564Z" fill="#FFAF1A"/>
</svg>
