<svg width="57" height="57" viewBox="0 0 57 57" fill="none" xmlns="http://www.w3.org/2000/svg">
<path d="M28.5 48.4527C29.1981 48.4528 29.872 48.7091 30.3937 49.173C30.9154 49.6369 31.2487 50.2761 31.3304 50.9694L31.3503 51.3028V54.153C31.3495 54.8794 31.0713 55.5782 30.5726 56.1064C30.0739 56.6346 29.3923 56.9525 28.667 56.9951C27.9418 57.0377 27.2277 56.8017 26.6706 56.3355C26.1135 55.8692 25.7554 55.2078 25.6696 54.4865L25.6497 54.153V51.3028C25.6497 50.5469 25.95 49.822 26.4845 49.2875C27.0191 48.753 27.744 48.4527 28.5 48.4527ZM46.494 42.4959L46.762 42.7324L48.7572 44.7275C49.2684 45.2404 49.5652 45.9287 49.5873 46.6525C49.6094 47.3763 49.3551 48.0813 48.8762 48.6245C48.3972 49.1676 47.7295 49.5081 47.0086 49.5768C46.2877 49.6455 45.5677 49.4372 44.9948 48.9942L44.7268 48.7577L42.7316 46.7625C42.2398 46.2716 41.9442 45.6178 41.9006 44.9242C41.8571 44.2306 42.0684 43.545 42.4949 42.9963C42.9214 42.4476 43.5337 42.0736 44.2167 41.9447C44.8996 41.8158 45.6061 41.9409 46.2033 42.2963L46.494 42.4959ZM14.2684 42.7324C14.7591 43.2232 15.0539 43.8762 15.0975 44.5688C15.1411 45.2615 14.9304 45.9462 14.505 46.4946L14.2684 46.7625L12.2732 48.7577C11.7602 49.2688 11.0719 49.5656 10.3481 49.5877C9.62426 49.6098 8.91915 49.3556 8.37598 48.8766C7.83281 48.3977 7.4923 47.73 7.42363 47.0092C7.35495 46.2883 7.56326 45.5683 8.00623 44.9954L8.24281 44.7275L10.238 42.7324C10.7725 42.1981 11.4974 41.8979 12.2532 41.8979C13.009 41.8979 13.7339 42.1981 14.2684 42.7324ZM5.69747 25.6514C6.42396 25.6522 7.12272 25.9304 7.65099 26.4291C8.17926 26.9278 8.49715 27.6093 8.53973 28.3345C8.5823 29.0597 8.34634 29.7738 7.88006 30.3309C7.41378 30.888 6.75236 31.246 6.03096 31.3318L5.69747 31.3517H2.84716C2.12067 31.3509 1.42191 31.0728 0.893642 30.5741C0.365376 30.0754 0.0474782 29.3938 0.00490264 28.6686C-0.0376729 27.9434 0.198287 27.2293 0.664571 26.6723C1.13086 26.1152 1.79227 25.7572 2.51367 25.6714L2.84716 25.6514H5.69747ZM54.1528 25.6514C54.8793 25.6522 55.5781 25.9304 56.1064 26.4291C56.6346 26.9278 56.9525 27.6093 56.9951 28.3345C57.0377 29.0597 56.8017 29.7738 56.3354 30.3309C55.8691 30.888 55.2077 31.246 54.4863 31.3318L54.1528 31.3517H51.3025C50.576 31.3509 49.8773 31.0728 49.349 30.5741C48.8207 30.0754 48.5028 29.3938 48.4603 28.6686C48.4177 27.9434 48.6537 27.2293 49.1199 26.6723C49.5862 26.1152 50.2476 25.7572 50.969 25.6714L51.3025 25.6514H54.1528ZM12.0052 8.00894L12.2732 8.24551L14.2684 10.2406C14.7796 10.7535 15.0764 11.4418 15.0985 12.1656C15.1206 12.8894 14.8663 13.5944 14.3874 14.1376C13.9084 14.6807 13.2407 15.0212 12.5198 15.0899C11.7989 15.1585 11.0788 14.9503 10.506 14.5073L10.238 14.2707L8.24281 12.2756C7.75281 11.7845 7.45878 11.1315 7.41583 10.4391C7.37289 9.74666 7.58398 9.06235 8.00954 8.51443C8.4351 7.96652 9.0459 7.59262 9.72745 7.46283C10.409 7.33304 11.1145 7.45628 11.7116 7.80943L12.0052 8.00894ZM48.7572 8.24551C49.248 8.73628 49.5428 9.38925 49.5863 10.0819C49.6299 10.7746 49.4192 11.4593 48.9938 12.0077L48.7572 12.2756L46.762 14.2707C46.249 14.7819 45.5608 15.0787 44.8369 15.1008C44.1131 15.1229 43.408 14.8687 42.8648 14.3897C42.3216 13.9108 41.9811 13.2431 41.9124 12.5222C41.8438 11.8014 42.0521 11.0814 42.495 10.5085L42.7316 10.2406L44.7268 8.24551C45.2614 7.71119 45.9862 7.41102 46.742 7.41102C47.4978 7.41102 48.2227 7.71119 48.7572 8.24551ZM28.5 0C29.1981 9.20902e-05 29.872 0.256389 30.3937 0.720279C30.9154 1.18417 31.2487 1.82339 31.3304 2.51669L31.3503 2.85016V5.70032C31.3495 6.42676 31.0713 7.12549 30.5726 7.65372C30.0739 8.18196 29.3923 8.49984 28.667 8.54241C27.9418 8.58499 27.2277 8.34904 26.6706 7.88278C26.1135 7.41652 25.7554 6.75515 25.6696 6.03378L25.6497 5.70032V2.85016C25.6497 2.09425 25.95 1.3693 26.4845 0.834792C27.0191 0.300284 27.744 0 28.5 0ZM28.5 14.2508C31.2924 14.2506 34.0233 15.0708 36.3536 16.6093C38.6838 18.1478 40.5107 20.337 41.6074 22.9049C42.704 25.4728 43.0221 28.3063 42.5221 31.0534C42.0221 33.8005 40.726 36.3402 38.7949 38.357C36.8637 40.3739 34.3826 41.779 31.6597 42.3979C28.9367 43.0168 26.092 42.8222 23.4787 41.8382C20.8654 40.8543 18.5988 39.1243 16.9604 36.8633C15.3219 34.6022 14.3839 31.9097 14.2627 29.1201L14.2484 28.5016L14.2627 27.8831C14.4221 24.2142 15.9917 20.7485 18.6442 18.2087C21.2968 15.6689 24.8275 14.251 28.5 14.2508Z" fill="#FFAF1A"/>
</svg>
