<svg width="37" height="37" viewBox="0 0 37 37" fill="none" xmlns="http://www.w3.org/2000/svg">
<path d="M32.8889 0C33.9792 0 35.0249 0.433134 35.7959 1.20412C36.5669 1.9751 37 3.02078 37 4.11111V32.8889C37 33.9792 36.5669 35.0249 35.7959 35.7959C35.0249 36.5669 33.9792 37 32.8889 37H4.11111C3.02078 37 1.9751 36.5669 1.20412 35.7959C0.433134 35.0249 0 33.9792 0 32.8889V4.11111C0 3.02078 0.433134 1.9751 1.20412 1.20412C1.9751 0.433134 3.02078 0 4.11111 0H32.8889ZM31.8611 31.8611V20.9667C31.8611 19.1894 31.1551 17.485 29.8984 16.2283C28.6417 14.9716 26.9372 14.2656 25.16 14.2656C23.4128 14.2656 21.3778 15.3344 20.3911 16.9378V14.6561H14.6561V31.8611H20.3911V21.7272C20.3911 20.1444 21.6656 18.8494 23.2483 18.8494C24.0116 18.8494 24.7435 19.1526 25.2832 19.6923C25.8229 20.232 26.1261 20.964 26.1261 21.7272V31.8611H31.8611ZM7.97556 11.4289C8.89144 11.4289 9.76981 11.0651 10.4174 10.4174C11.0651 9.76981 11.4289 8.89144 11.4289 7.97556C11.4289 6.06389 9.88722 4.50167 7.97556 4.50167C7.05422 4.50167 6.17063 4.86766 5.51915 5.51915C4.86766 6.17063 4.50167 7.05422 4.50167 7.97556C4.50167 9.88722 6.06389 11.4289 7.97556 11.4289ZM10.8328 31.8611V14.6561H5.13889V31.8611H10.8328Z" fill="#F85281"/>
</svg>
