<svg width="45" height="51" viewBox="0 0 45 51" fill="none" xmlns="http://www.w3.org/2000/svg">
<path d="M43.9369 0.614741C44.2684 0.880068 44.5362 1.21739 44.7203 1.60153C44.9044 1.98568 45 2.40675 45 2.83332V35.8909C45 36.0043 44.9934 36.1186 44.9803 36.2338C44.9934 36.4321 45 36.6324 45 36.8345C44.9991 38.6387 44.4283 40.3958 43.3703 41.8516C42.3124 43.3073 40.8221 44.3861 39.1151 44.932C37.4081 45.4778 35.573 45.4623 33.8754 44.8877C32.1778 44.3131 30.7056 43.2093 29.672 41.7358C28.6384 40.2624 28.097 38.4959 28.1261 36.6919C28.1552 34.888 28.7533 33.1401 29.8339 31.7013C30.9144 30.2625 32.4214 29.2074 34.1366 28.6886C35.8519 28.1699 37.6865 28.2145 39.375 28.8159V17.7372L16.875 23.0272V42.5098C16.8729 44.3138 16.3011 46.0703 15.2424 47.5252C14.1838 48.9802 12.6931 50.0581 10.9861 50.603C9.27908 51.1479 7.44425 51.1315 5.74707 50.5563C4.04989 49.9811 2.57838 48.8768 1.54541 47.4032C0.512451 45.9297 -0.0283863 44.1632 0.00114837 42.3595C0.030683 40.5558 0.629058 38.8083 1.7097 37.3699C2.79035 35.9314 4.29722 34.8766 6.01231 34.3581C7.72739 33.8396 9.56175 33.8842 11.25 34.4856V9.44371C11.2499 8.804 11.4647 8.18309 11.8595 7.68201C12.2542 7.18093 12.8056 6.82916 13.4241 6.68395L41.5491 0.0735559C41.9578 -0.0221485 42.3826 -0.0244908 42.7924 0.0667012C43.2022 0.157893 43.5865 0.340308 43.9172 0.600574L43.9369 0.614741Z" fill="#DB0643"/>
</svg>
