<svg width="61" height="61" viewBox="0 0 61 61" fill="none" xmlns="http://www.w3.org/2000/svg">
<path d="M47.9369 3.61474C48.2684 3.88007 48.5362 4.21739 48.7203 4.60153C48.9044 4.98568 49 5.40675 49 5.83332V38.8909C49 39.0043 48.9934 39.1186 48.9803 39.2338C48.9934 39.4321 49 39.6324 49 39.8345C48.9991 41.6387 48.4283 43.3958 47.3703 44.8516C46.3124 46.3073 44.8221 47.3861 43.1151 47.932C41.4081 48.4778 39.573 48.4623 37.8754 47.8877C36.1778 47.3131 34.7056 46.2093 33.672 44.7358C32.6384 43.2624 32.097 41.4959 32.1261 39.6919C32.1552 37.888 32.7533 36.1401 33.8339 34.7013C34.9144 33.2625 36.4214 32.2074 38.1366 31.6886C39.8519 31.1699 41.6865 31.2145 43.375 31.8159V20.7372L20.875 26.0272V45.5098C20.8729 47.3138 20.3011 49.0703 19.2424 50.5252C18.1838 51.9802 16.6931 53.0581 14.9861 53.603C13.2791 54.1479 11.4443 54.1315 9.74707 53.5563C8.04989 52.9811 6.57838 51.8768 5.54541 50.4032C4.51245 48.9297 3.97161 47.1632 4.00115 45.3595C4.03068 43.5558 4.62906 41.8083 5.7097 40.3698C6.79035 38.9314 8.29722 37.8766 10.0123 37.3581C11.7274 36.8396 13.5618 36.8842 15.25 37.4856V12.4437C15.2499 11.804 15.4647 11.1831 15.8595 10.682C16.2542 10.1809 16.8056 9.82916 17.4241 9.68395L45.5491 3.07356C45.9578 2.97785 46.3826 2.97551 46.7924 3.0667C47.2022 3.15789 47.5865 3.34031 47.9172 3.60057L47.9369 3.61474Z" fill="#DB0643"/>
<path d="M4 4L56.5 56.5" stroke="#DB0643" stroke-width="8" stroke-linecap="round"/>
</svg>
