<svg width="87" height="88" viewBox="0 0 87 88" fill="none" xmlns="http://www.w3.org/2000/svg">
<path d="M85.4103 32.6865C83.86 26.7245 81.031 22.0385 75.0969 22.0385H67.1922V31.4105C67.1922 38.6485 60.9736 44.7513 54.3345 44.7513H33.2742C27.4847 44.7513 22.9609 49.7233 22.9609 55.5401V75.5601C22.9609 81.0909 27.9095 84.5009 33.2742 86.3445C39.7776 88.3333 46.132 88.7601 54.1856 86.3445C59.4145 84.7825 64.5033 81.8037 64.5033 75.5557V67.6049H43.7321V65.0529H75.0969C81.031 65.0529 83.4352 60.7937 85.4103 54.4049C87.5299 47.4485 87.5299 41.0597 85.4103 32.6865ZM55.4556 72.4317C57.5796 72.4317 59.4145 74.2797 59.4145 76.4093C59.4145 78.5389 57.5752 80.3825 55.46 80.3825C53.3404 80.5233 51.5011 78.5345 51.5011 76.4093C51.3609 74.2797 53.1959 72.4317 55.46 72.4317M32.2933 42.0541H53.2046C58.9941 42.0541 63.518 37.2273 63.518 31.2653V11.5313C63.518 5.9961 58.7138 1.7369 53.2002 0.7425C46.2809 -0.2475 38.6477 -0.2475 32.2933 0.7425C23.3901 2.3045 21.9755 5.5693 21.9755 11.5313V19.4821H42.8869V22.0341H14.3423C8.40834 22.0341 3.03926 25.8709 1.4846 32.6821C-0.494866 40.6329 -0.494866 45.6005 1.4846 53.8373C3.03926 60.0853 6.43325 64.4853 12.6475 64.4853H19.4311V54.9725C19.2866 48.0161 25.3651 42.0541 32.2889 42.0541M31.0189 14.0877C29.9763 14.0664 28.9823 13.6411 28.2445 12.9006C27.5067 12.1602 27.0823 11.162 27.06 10.1145C27.06 7.9849 28.8993 6.1369 31.0145 6.1369C33.1297 6.1369 34.9734 7.9849 34.9734 10.1145C34.9734 12.2441 33.1385 14.0877 31.0189 14.0877Z" fill="#DB0643"/>
</svg>
