<svg width="126" height="126" viewBox="0 0 126 126" fill="none" xmlns="http://www.w3.org/2000/svg">
<g filter="url(#filter0_di_124_4)">
<circle cx="63" cy="63" r="50" fill="#FFF599"/>
</g>
<path d="M62.5 82.4527C63.1981 82.4528 63.872 82.7091 64.3937 83.173C64.9154 83.6369 65.2487 84.2761 65.3304 84.9694L65.3503 85.3028V88.153C65.3495 88.8794 65.0713 89.5782 64.5726 90.1064C64.0739 90.6346 63.3923 90.9525 62.667 90.9951C61.9418 91.0377 61.2277 90.8017 60.6706 90.3355C60.1135 89.8692 59.7554 89.2078 59.6696 88.4865L59.6497 88.153V85.3028C59.6497 84.5469 59.95 83.822 60.4845 83.2875C61.0191 82.753 61.744 82.4527 62.5 82.4527ZM80.494 76.4959L80.762 76.7324L82.7572 78.7275C83.2684 79.2404 83.5652 79.9287 83.5873 80.6525C83.6094 81.3763 83.3551 82.0813 82.8762 82.6245C82.3972 83.1676 81.7295 83.5081 81.0086 83.5768C80.2877 83.6455 79.5677 83.4372 78.9948 82.9942L78.7268 82.7577L76.7316 80.7625C76.2398 80.2716 75.9442 79.6178 75.9006 78.9242C75.8571 78.2306 76.0684 77.545 76.4949 76.9963C76.9214 76.4476 77.5337 76.0736 78.2167 75.9447C78.8996 75.8158 79.6061 75.9409 80.2033 76.2963L80.494 76.4959ZM48.2684 76.7324C48.7591 77.2232 49.0539 77.8762 49.0975 78.5688C49.1411 79.2615 48.9304 79.9462 48.505 80.4946L48.2684 80.7625L46.2732 82.7577C45.7602 83.2688 45.0719 83.5656 44.3481 83.5877C43.6243 83.6098 42.9191 83.3556 42.376 82.8766C41.8328 82.3977 41.4923 81.73 41.4236 81.0092C41.355 80.2883 41.5633 79.5683 42.0062 78.9954L42.2428 78.7275L44.238 76.7324C44.7725 76.1981 45.4974 75.8979 46.2532 75.8979C47.009 75.8979 47.7339 76.1981 48.2684 76.7324ZM39.6975 59.6514C40.424 59.6522 41.1227 59.9304 41.651 60.4291C42.1793 60.9278 42.4972 61.6093 42.5397 62.3345C42.5823 63.0597 42.3463 63.7738 41.8801 64.3309C41.4138 64.888 40.7524 65.246 40.031 65.3318L39.6975 65.3517H36.8472C36.1207 65.3509 35.4219 65.0728 34.8936 64.5741C34.3654 64.0754 34.0475 63.3938 34.0049 62.6686C33.9623 61.9434 34.1983 61.2293 34.6646 60.6723C35.1309 60.1152 35.7923 59.7572 36.5137 59.6714L36.8472 59.6514H39.6975ZM88.1528 59.6514C88.8793 59.6522 89.5781 59.9304 90.1064 60.4291C90.6346 60.9278 90.9525 61.6093 90.9951 62.3345C91.0377 63.0597 90.8017 63.7738 90.3354 64.3309C89.8691 64.888 89.2077 65.246 88.4863 65.3318L88.1528 65.3517H85.3025C84.576 65.3509 83.8773 65.0728 83.349 64.5741C82.8207 64.0754 82.5028 63.3938 82.4603 62.6686C82.4177 61.9434 82.6537 61.2293 83.1199 60.6723C83.5862 60.1152 84.2476 59.7572 84.969 59.6714L85.3025 59.6514H88.1528ZM46.0052 42.0089L46.2732 42.2455L48.2684 44.2406C48.7796 44.7535 49.0764 45.4418 49.0985 46.1656C49.1206 46.8894 48.8663 47.5944 48.3874 48.1376C47.9084 48.6807 47.2407 49.0212 46.5198 49.0899C45.7989 49.1585 45.0788 48.9503 44.506 48.5073L44.238 48.2707L42.2428 46.2756C41.7528 45.7845 41.4588 45.1315 41.4158 44.4391C41.3729 43.7467 41.584 43.0623 42.0095 42.5144C42.4351 41.9665 43.0459 41.5926 43.7274 41.4628C44.409 41.333 45.1145 41.4563 45.7116 41.8094L46.0052 42.0089ZM82.7572 42.2455C83.248 42.7363 83.5428 43.3893 83.5863 44.0819C83.6299 44.7746 83.4192 45.4593 82.9938 46.0077L82.7572 46.2756L80.762 48.2707C80.249 48.7819 79.5608 49.0787 78.8369 49.1008C78.1131 49.1229 77.408 48.8687 76.8648 48.3897C76.3216 47.9108 75.9811 47.2431 75.9124 46.5222C75.8438 45.8014 76.0521 45.0814 76.495 44.5085L76.7316 44.2406L78.7268 42.2455C79.2614 41.7112 79.9862 41.411 80.742 41.411C81.4978 41.411 82.2227 41.7112 82.7572 42.2455ZM62.5 34C63.1981 34.0001 63.872 34.2564 64.3937 34.7203C64.9154 35.1842 65.2487 35.8234 65.3304 36.5167L65.3503 36.8502V39.7003C65.3495 40.4268 65.0713 41.1255 64.5726 41.6537C64.0739 42.182 63.3923 42.4998 62.667 42.5424C61.9418 42.585 61.2277 42.349 60.6706 41.8828C60.1135 41.4165 59.7554 40.7551 59.6696 40.0338L59.6497 39.7003V36.8502C59.6497 36.0942 59.95 35.3693 60.4845 34.8348C61.0191 34.3003 61.744 34 62.5 34ZM62.5 48.2508C65.2924 48.2506 68.0233 49.0708 70.3536 50.6093C72.6838 52.1478 74.5107 54.337 75.6074 56.9049C76.704 59.4728 77.0221 62.3063 76.5221 65.0534C76.0221 67.8005 74.726 70.3402 72.7949 72.357C70.8637 74.3739 68.3826 75.779 65.6597 76.3979C62.9367 77.0168 60.092 76.8222 57.4787 75.8382C54.8654 74.8543 52.5988 73.1243 50.9604 70.8633C49.3219 68.6022 48.3839 65.9097 48.2627 63.1201L48.2484 62.5016L48.2627 61.8831C48.4221 58.2142 49.9917 54.7485 52.6442 52.2087C55.2968 49.6689 58.8275 48.251 62.5 48.2508Z" fill="#FFAF1A"/>
<defs>
<filter id="filter0_di_124_4" x="0.4" y="0.4" width="125.2" height="125.2" filterUnits="userSpaceOnUse" color-interpolation-filters="sRGB">
<feFlood flood-opacity="0" result="BackgroundImageFix"/>
<feColorMatrix in="SourceAlpha" type="matrix" values="0 0 0 0 0 0 0 0 0 0 0 0 0 0 0 0 0 0 127 0" result="hardAlpha"/>
<feMorphology radius="3" operator="dilate" in="SourceAlpha" result="effect1_dropShadow_124_4"/>
<feOffset/>
<feGaussianBlur stdDeviation="4.8"/>
<feComposite in2="hardAlpha" operator="out"/>
<feColorMatrix type="matrix" values="0 0 0 0 1 0 0 0 0 0.73161 0 0 0 0 0.233173 0 0 0 1 0"/>
<feBlend mode="normal" in2="BackgroundImageFix" result="effect1_dropShadow_124_4"/>
<feBlend mode="normal" in="SourceGraphic" in2="effect1_dropShadow_124_4" result="shape"/>
<feColorMatrix in="SourceAlpha" type="matrix" values="0 0 0 0 0 0 0 0 0 0 0 0 0 0 0 0 0 0 127 0" result="hardAlpha"/>
<feMorphology radius="8" operator="erode" in="SourceAlpha" result="effect2_innerShadow_124_4"/>
<feOffset/>
<feGaussianBlur stdDeviation="14.95"/>
<feComposite in2="hardAlpha" operator="arithmetic" k2="-1" k3="1"/>
<feColorMatrix type="matrix" values="0 0 0 0 1 0 0 0 0 0.73161 0 0 0 0 0.233173 0 0 0 1 0"/>
<feBlend mode="normal" in2="shape" result="effect2_innerShadow_124_4"/>
</filter>
</defs>
</svg>
