<svg width="475" height="419" viewBox="0 0 475 419" fill="none" xmlns="http://www.w3.org/2000/svg">
<path d="M372.366 280.703C356.614 307.281 354.904 334.829 368.546 342.231C382.189 349.634 406.019 334.089 421.771 307.511C437.524 280.932 425.591 245.982 425.591 245.982C425.591 245.982 388.119 254.124 372.366 280.703Z" fill="url(#paint0_linear_54_580)"/>
<g filter="url(#filter0_d_54_580)">
<path d="M372.366 280.703C356.614 307.281 354.904 334.829 368.546 342.231C382.189 349.634 406.019 334.089 421.771 307.511C437.524 280.932 425.591 245.982 425.591 245.982C425.591 245.982 388.119 254.124 372.366 280.703Z" fill="url(#paint1_linear_54_580)"/>
</g>
<path d="M423.062 249.618L369.154 339.856" stroke="url(#paint2_linear_54_580)" stroke-width="4" stroke-linecap="round"/>
<line x1="364.763" y1="178.131" x2="364.763" y2="369.154" stroke="url(#paint3_linear_54_580)" stroke-width="17"/>
<path d="M360.174 62.9221C363.121 57.0233 371.539 57.0234 374.486 62.9221L382.641 79.2424L397.616 63.5266C402.165 58.7526 410.212 61.2233 411.298 67.7278L423.566 141.206C423.799 142.323 423.987 143.454 424.132 144.595L424.767 148.395C425.004 149.819 424.857 151.183 424.418 152.407C423.008 179.037 397.421 200.256 366.061 200.256C333.796 200.256 307.641 177.796 307.641 150.091C307.641 144.883 308.565 139.859 310.28 135.136L321.536 67.7249C322.622 61.2205 330.67 58.7495 335.219 63.5237L351.393 80.4973L360.174 62.9221Z" fill="url(#paint4_linear_54_580)"/>
<g filter="url(#filter1_f_54_580)">
<g filter="url(#filter2_i_54_580)">
<path d="M374.487 62.9229C371.539 57.0237 363.121 57.0237 360.174 62.9229L323.621 136.083C320.963 141.402 324.831 147.659 330.777 147.659H403.883C409.829 147.659 413.697 141.402 411.04 136.083L374.487 62.9229Z" fill="#FE97A1"/>
</g>
<g filter="url(#filter3_i_54_580)">
<path d="M411.298 67.7282C410.212 61.2237 402.165 58.7528 397.616 63.527L341.199 122.736C337.097 127.04 338.958 134.157 344.642 135.902L414.528 157.36C420.212 159.106 425.746 154.26 424.767 148.395L411.298 67.7282Z" fill="#FE97A1"/>
</g>
<g filter="url(#filter4_i_54_580)">
<path d="M321.536 67.7255C322.622 61.221 330.67 58.7501 335.219 63.5243L391.636 122.733C395.738 127.038 393.877 134.154 388.192 135.899L318.306 157.358C312.622 159.103 307.088 154.257 308.068 148.392L321.536 67.7255Z" fill="#FE97A1"/>
</g>
<g filter="url(#filter5_i_54_580)">
<ellipse cx="366.06" cy="150.091" rx="58.4197" ry="50.1647" fill="#FE97A1"/>
</g>
</g>
<g filter="url(#filter6_d_54_580)">
<path d="M244.628 204.528C228.875 231.107 227.165 258.654 240.807 266.057C254.45 273.46 278.28 257.915 294.032 231.336C309.785 204.758 297.853 169.808 297.853 169.808C297.853 169.808 260.38 177.949 244.628 204.528Z" fill="url(#paint5_linear_54_580)"/>
<path d="M244.628 204.528C228.875 231.107 227.165 258.654 240.807 266.057C254.45 273.46 278.28 257.915 294.032 231.336C309.785 204.758 297.853 169.808 297.853 169.808C297.853 169.808 260.38 177.949 244.628 204.528Z" fill="url(#paint6_linear_54_580)"/>
<path d="M295.323 173.444L241.415 263.681" stroke="url(#paint7_linear_54_580)" stroke-width="4" stroke-linecap="round"/>
</g>
<g filter="url(#filter7_d_54_580)">
<path d="M223.58 304.141C239.333 330.719 241.043 358.267 227.4 365.67C213.757 373.073 189.928 357.528 174.175 330.949C158.423 304.371 170.355 269.42 170.355 269.42C170.355 269.42 207.827 277.562 223.58 304.141Z" fill="url(#paint8_linear_54_580)"/>
<path d="M223.58 304.141C239.333 330.719 241.043 358.267 227.4 365.67C213.757 373.073 189.928 357.528 174.175 330.949C158.423 304.371 170.355 269.42 170.355 269.42C170.355 269.42 207.827 277.562 223.58 304.141Z" fill="url(#paint9_linear_54_580)"/>
<path d="M172.885 273.057L226.793 363.294" stroke="url(#paint10_linear_54_580)" stroke-width="4" stroke-linecap="round"/>
</g>
<line y1="-8.5" x2="191.022" y2="-8.5" transform="matrix(4.37114e-08 1 1 -4.37114e-08 117.805 178.131)" stroke="#59CE00" stroke-width="17"/>
<path d="M113.893 62.9229C110.946 57.0239 102.528 57.024 99.5807 62.9229L91.4265 79.2432L76.4509 63.5273C71.9017 58.7532 63.8553 61.224 62.7692 67.7285L50.5007 141.207C50.2682 142.324 50.0801 143.454 49.9352 144.596L49.3005 148.396C49.0627 149.82 49.2096 151.184 49.6491 152.408C51.0587 179.038 76.6466 200.257 108.007 200.257C140.271 200.257 166.426 177.797 166.426 150.092C166.426 144.883 165.503 139.859 163.787 135.135L152.531 67.7256C151.445 61.2211 143.397 58.7502 138.848 63.5244L122.675 80.498L113.893 62.9229Z" fill="url(#paint11_linear_54_580)"/>
<g filter="url(#filter8_f_54_580)">
<g filter="url(#filter9_i_54_580)">
<path d="M99.5804 62.9229C102.528 57.0237 110.946 57.0237 113.893 62.9229L150.446 136.083C153.104 141.402 149.236 147.659 143.29 147.659H70.1838C64.2377 147.659 60.3697 141.402 63.0273 136.083L99.5804 62.9229Z" fill="#FE97A1"/>
</g>
<g filter="url(#filter10_i_54_580)">
<path d="M62.7689 67.7282C63.8549 61.2237 71.9022 58.7528 76.4514 63.527L132.869 122.736C136.97 127.04 135.109 134.157 129.425 135.902L59.5391 157.36C53.855 159.106 48.3209 154.26 49.3001 148.395L62.7689 67.7282Z" fill="#FE97A1"/>
</g>
<g filter="url(#filter11_i_54_580)">
<path d="M152.531 67.7255C151.445 61.221 143.398 58.7501 138.848 63.5243L82.4311 122.733C78.3293 127.038 80.1905 134.154 85.8747 135.899L155.761 157.358C161.445 159.103 166.979 154.257 166 148.392L152.531 67.7255Z" fill="#FE97A1"/>
</g>
<g filter="url(#filter12_i_54_580)">
<ellipse cx="58.4197" cy="50.1647" rx="58.4197" ry="50.1647" transform="matrix(-1 0 0 1 166.427 99.9268)" fill="#FE97A1"/>
</g>
</g>
<g filter="url(#filter13_d_54_580)">
<path d="M101.701 257.264C117.453 283.843 119.164 311.39 105.521 318.793C91.8781 326.196 68.0484 310.651 52.2958 284.072C36.5433 257.494 48.4757 222.544 48.4757 222.544C48.4757 222.544 85.9481 230.686 101.701 257.264Z" fill="url(#paint12_linear_54_580)"/>
<path d="M51.0052 226.18L104.913 316.418" stroke="url(#paint13_linear_54_580)" stroke-width="4" stroke-linecap="round"/>
</g>
<line y1="-8.5" x2="269.541" y2="-8.5" transform="matrix(4.37114e-08 1 1 -4.37114e-08 247.274 99.6128)" stroke="#59CE00" stroke-width="17"/>
<path d="M242.804 27.7654C239.857 21.8664 231.439 21.8665 228.492 27.7654L220.337 44.0857L205.362 28.3699C200.813 23.5957 192.766 26.0666 191.68 32.571L179.411 106.05C179.179 107.167 178.991 108.297 178.846 109.438L178.211 113.238C177.974 114.662 178.12 116.026 178.56 117.251C179.97 143.88 205.557 165.099 236.917 165.099C269.182 165.099 295.337 142.639 295.337 114.934C295.337 109.725 294.414 104.701 292.698 99.9773L281.442 32.5681C280.356 26.0636 272.308 23.5927 267.759 28.3669L251.586 45.3406L242.804 27.7654Z" fill="url(#paint14_linear_54_580)"/>
<g filter="url(#filter14_f_54_580)">
<g filter="url(#filter15_i_54_580)">
<path d="M228.491 27.7654C231.439 21.8662 239.857 21.8662 242.804 27.7654L279.357 100.926C282.015 106.245 278.147 112.501 272.201 112.501H199.095C193.149 112.501 189.281 106.245 191.938 100.926L228.491 27.7654Z" fill="#FE97A1"/>
</g>
<g filter="url(#filter16_i_54_580)">
<path d="M191.68 32.5704C192.766 26.0659 200.813 23.595 205.362 28.3693L261.779 87.5779C265.881 91.8826 264.02 98.9989 258.336 100.744L188.45 122.203C182.766 123.948 177.232 119.102 178.211 113.237L191.68 32.5704Z" fill="#FE97A1"/>
</g>
<g filter="url(#filter17_i_54_580)">
<path d="M281.442 32.568C280.356 26.0635 272.308 23.5926 267.759 28.3668L211.342 87.5754C207.24 91.8801 209.101 98.9964 214.785 100.742L284.671 122.2C290.356 123.945 295.89 119.1 294.91 113.235L281.442 32.568Z" fill="#FE97A1"/>
</g>
<g filter="url(#filter18_i_54_580)">
<ellipse cx="58.4197" cy="50.1647" rx="58.4197" ry="50.1647" transform="matrix(-1 0 0 1 295.337 64.7693)" fill="#FE97A1"/>
</g>
</g>
<g filter="url(#filter19_i_54_580)">
<rect x="38.6732" y="349.231" width="377.357" height="69.1431" rx="15" fill="#A67362"/>
</g>
<defs>
<filter id="filter0_d_54_580" x="351.636" y="242.282" width="85.9856" height="113.494" filterUnits="userSpaceOnUse" color-interpolation-filters="sRGB">
<feFlood flood-opacity="0" result="BackgroundImageFix"/>
<feColorMatrix in="SourceAlpha" type="matrix" values="0 0 0 0 0 0 0 0 0 0 0 0 0 0 0 0 0 0 127 0" result="hardAlpha"/>
<feOffset dy="4"/>
<feGaussianBlur stdDeviation="3.85"/>
<feComposite in2="hardAlpha" operator="out"/>
<feColorMatrix type="matrix" values="0 0 0 0 0.392079 0 0 0 0 0.539904 0 0 0 0 0.279037 0 0 0 1 0"/>
<feBlend mode="normal" in2="BackgroundImageFix" result="effect1_dropShadow_54_580"/>
<feBlend mode="normal" in="SourceGraphic" in2="effect1_dropShadow_54_580" result="shape"/>
</filter>
<filter id="filter1_f_54_580" x="300.741" y="51.5985" width="131.04" height="155.558" filterUnits="userSpaceOnUse" color-interpolation-filters="sRGB">
<feFlood flood-opacity="0" result="BackgroundImageFix"/>
<feBlend mode="normal" in="SourceGraphic" in2="BackgroundImageFix" result="shape"/>
<feGaussianBlur stdDeviation="3.45" result="effect1_foregroundBlur_54_580"/>
</filter>
<filter id="filter2_i_54_580" x="322.767" y="58.4985" width="106.127" height="93.1604" filterUnits="userSpaceOnUse" color-interpolation-filters="sRGB">
<feFlood flood-opacity="0" result="BackgroundImageFix"/>
<feBlend mode="normal" in="SourceGraphic" in2="BackgroundImageFix" result="shape"/>
<feColorMatrix in="SourceAlpha" type="matrix" values="0 0 0 0 0 0 0 0 0 0 0 0 0 0 0 0 0 0 127 0" result="hardAlpha"/>
<feOffset dx="17" dy="4"/>
<feGaussianBlur stdDeviation="16.05"/>
<feComposite in2="hardAlpha" operator="arithmetic" k2="-1" k3="1"/>
<feColorMatrix type="matrix" values="0 0 0 0 0.972549 0 0 0 0 0.321569 0 0 0 0 0.505882 0 0 0 1 0"/>
<feBlend mode="normal" in2="shape" result="effect1_innerShadow_54_580"/>
</filter>
<filter id="filter3_i_54_580" x="338.986" y="61.0378" width="102.894" height="100.683" filterUnits="userSpaceOnUse" color-interpolation-filters="sRGB">
<feFlood flood-opacity="0" result="BackgroundImageFix"/>
<feBlend mode="normal" in="SourceGraphic" in2="BackgroundImageFix" result="shape"/>
<feColorMatrix in="SourceAlpha" type="matrix" values="0 0 0 0 0 0 0 0 0 0 0 0 0 0 0 0 0 0 127 0" result="hardAlpha"/>
<feOffset dx="17" dy="4"/>
<feGaussianBlur stdDeviation="16.05"/>
<feComposite in2="hardAlpha" operator="arithmetic" k2="-1" k3="1"/>
<feColorMatrix type="matrix" values="0 0 0 0 0.972549 0 0 0 0 0.321569 0 0 0 0 0.505882 0 0 0 1 0"/>
<feBlend mode="normal" in2="shape" result="effect1_innerShadow_54_580"/>
</filter>
<filter id="filter4_i_54_580" x="307.954" y="61.0352" width="102.894" height="100.683" filterUnits="userSpaceOnUse" color-interpolation-filters="sRGB">
<feFlood flood-opacity="0" result="BackgroundImageFix"/>
<feBlend mode="normal" in="SourceGraphic" in2="BackgroundImageFix" result="shape"/>
<feColorMatrix in="SourceAlpha" type="matrix" values="0 0 0 0 0 0 0 0 0 0 0 0 0 0 0 0 0 0 127 0" result="hardAlpha"/>
<feOffset dx="17" dy="4"/>
<feGaussianBlur stdDeviation="16.05"/>
<feComposite in2="hardAlpha" operator="arithmetic" k2="-1" k3="1"/>
<feColorMatrix type="matrix" values="0 0 0 0 0.972549 0 0 0 0 0.321569 0 0 0 0 0.505882 0 0 0 1 0"/>
<feBlend mode="normal" in2="shape" result="effect1_innerShadow_54_580"/>
</filter>
<filter id="filter5_i_54_580" x="307.641" y="83.9268" width="141.839" height="116.33" filterUnits="userSpaceOnUse" color-interpolation-filters="sRGB">
<feFlood flood-opacity="0" result="BackgroundImageFix"/>
<feBlend mode="normal" in="SourceGraphic" in2="BackgroundImageFix" result="shape"/>
<feColorMatrix in="SourceAlpha" type="matrix" values="0 0 0 0 0 0 0 0 0 0 0 0 0 0 0 0 0 0 127 0" result="hardAlpha"/>
<feOffset dx="25" dy="-16"/>
<feGaussianBlur stdDeviation="16.05"/>
<feComposite in2="hardAlpha" operator="arithmetic" k2="-1" k3="1"/>
<feColorMatrix type="matrix" values="0 0 0 0 0.972549 0 0 0 0 0.321569 0 0 0 0 0.505882 0 0 0 1 0"/>
<feBlend mode="normal" in2="shape" result="effect1_innerShadow_54_580"/>
</filter>
<filter id="filter6_d_54_580" x="223.897" y="166.108" width="85.9856" height="113.494" filterUnits="userSpaceOnUse" color-interpolation-filters="sRGB">
<feFlood flood-opacity="0" result="BackgroundImageFix"/>
<feColorMatrix in="SourceAlpha" type="matrix" values="0 0 0 0 0 0 0 0 0 0 0 0 0 0 0 0 0 0 127 0" result="hardAlpha"/>
<feOffset dy="4"/>
<feGaussianBlur stdDeviation="3.85"/>
<feComposite in2="hardAlpha" operator="out"/>
<feColorMatrix type="matrix" values="0 0 0 0 0.392079 0 0 0 0 0.539904 0 0 0 0 0.279037 0 0 0 1 0"/>
<feBlend mode="normal" in2="BackgroundImageFix" result="effect1_dropShadow_54_580"/>
<feBlend mode="normal" in="SourceGraphic" in2="effect1_dropShadow_54_580" result="shape"/>
</filter>
<filter id="filter7_d_54_580" x="158.325" y="265.72" width="85.9856" height="113.494" filterUnits="userSpaceOnUse" color-interpolation-filters="sRGB">
<feFlood flood-opacity="0" result="BackgroundImageFix"/>
<feColorMatrix in="SourceAlpha" type="matrix" values="0 0 0 0 0 0 0 0 0 0 0 0 0 0 0 0 0 0 127 0" result="hardAlpha"/>
<feOffset dy="4"/>
<feGaussianBlur stdDeviation="3.85"/>
<feComposite in2="hardAlpha" operator="out"/>
<feColorMatrix type="matrix" values="0 0 0 0 0.392079 0 0 0 0 0.539904 0 0 0 0 0.279037 0 0 0 1 0"/>
<feBlend mode="normal" in2="BackgroundImageFix" result="effect1_dropShadow_54_580"/>
<feBlend mode="normal" in="SourceGraphic" in2="effect1_dropShadow_54_580" result="shape"/>
</filter>
<filter id="filter8_f_54_580" x="42.2868" y="51.5985" width="131.04" height="155.558" filterUnits="userSpaceOnUse" color-interpolation-filters="sRGB">
<feFlood flood-opacity="0" result="BackgroundImageFix"/>
<feBlend mode="normal" in="SourceGraphic" in2="BackgroundImageFix" result="shape"/>
<feGaussianBlur stdDeviation="3.45" result="effect1_foregroundBlur_54_580"/>
</filter>
<filter id="filter9_i_54_580" x="62.1735" y="58.4985" width="106.127" height="93.1604" filterUnits="userSpaceOnUse" color-interpolation-filters="sRGB">
<feFlood flood-opacity="0" result="BackgroundImageFix"/>
<feBlend mode="normal" in="SourceGraphic" in2="BackgroundImageFix" result="shape"/>
<feColorMatrix in="SourceAlpha" type="matrix" values="0 0 0 0 0 0 0 0 0 0 0 0 0 0 0 0 0 0 127 0" result="hardAlpha"/>
<feOffset dx="17" dy="4"/>
<feGaussianBlur stdDeviation="16.05"/>
<feComposite in2="hardAlpha" operator="arithmetic" k2="-1" k3="1"/>
<feColorMatrix type="matrix" values="0 0 0 0 0.972549 0 0 0 0 0.321569 0 0 0 0 0.505882 0 0 0 1 0"/>
<feBlend mode="normal" in2="shape" result="effect1_innerShadow_54_580"/>
</filter>
<filter id="filter10_i_54_580" x="49.1868" y="61.0378" width="102.894" height="100.683" filterUnits="userSpaceOnUse" color-interpolation-filters="sRGB">
<feFlood flood-opacity="0" result="BackgroundImageFix"/>
<feBlend mode="normal" in="SourceGraphic" in2="BackgroundImageFix" result="shape"/>
<feColorMatrix in="SourceAlpha" type="matrix" values="0 0 0 0 0 0 0 0 0 0 0 0 0 0 0 0 0 0 127 0" result="hardAlpha"/>
<feOffset dx="17" dy="4"/>
<feGaussianBlur stdDeviation="16.05"/>
<feComposite in2="hardAlpha" operator="arithmetic" k2="-1" k3="1"/>
<feColorMatrix type="matrix" values="0 0 0 0 0.972549 0 0 0 0 0.321569 0 0 0 0 0.505882 0 0 0 1 0"/>
<feBlend mode="normal" in2="shape" result="effect1_innerShadow_54_580"/>
</filter>
<filter id="filter11_i_54_580" x="80.2187" y="61.0352" width="102.894" height="100.683" filterUnits="userSpaceOnUse" color-interpolation-filters="sRGB">
<feFlood flood-opacity="0" result="BackgroundImageFix"/>
<feBlend mode="normal" in="SourceGraphic" in2="BackgroundImageFix" result="shape"/>
<feColorMatrix in="SourceAlpha" type="matrix" values="0 0 0 0 0 0 0 0 0 0 0 0 0 0 0 0 0 0 127 0" result="hardAlpha"/>
<feOffset dx="17" dy="4"/>
<feGaussianBlur stdDeviation="16.05"/>
<feComposite in2="hardAlpha" operator="arithmetic" k2="-1" k3="1"/>
<feColorMatrix type="matrix" values="0 0 0 0 0.972549 0 0 0 0 0.321569 0 0 0 0 0.505882 0 0 0 1 0"/>
<feBlend mode="normal" in2="shape" result="effect1_innerShadow_54_580"/>
</filter>
<filter id="filter12_i_54_580" x="49.5871" y="83.9268" width="141.839" height="116.33" filterUnits="userSpaceOnUse" color-interpolation-filters="sRGB">
<feFlood flood-opacity="0" result="BackgroundImageFix"/>
<feBlend mode="normal" in="SourceGraphic" in2="BackgroundImageFix" result="shape"/>
<feColorMatrix in="SourceAlpha" type="matrix" values="0 0 0 0 0 0 0 0 0 0 0 0 0 0 0 0 0 0 127 0" result="hardAlpha"/>
<feOffset dx="25" dy="-16"/>
<feGaussianBlur stdDeviation="16.05"/>
<feComposite in2="hardAlpha" operator="arithmetic" k2="-1" k3="1"/>
<feColorMatrix type="matrix" values="0 0 0 0 0.972549 0 0 0 0 0.321569 0 0 0 0 0.505882 0 0 0 1 0"/>
<feBlend mode="normal" in2="shape" result="effect1_innerShadow_54_580"/>
</filter>
<filter id="filter13_d_54_580" x="36.4458" y="218.844" width="85.9856" height="113.494" filterUnits="userSpaceOnUse" color-interpolation-filters="sRGB">
<feFlood flood-opacity="0" result="BackgroundImageFix"/>
<feColorMatrix in="SourceAlpha" type="matrix" values="0 0 0 0 0 0 0 0 0 0 0 0 0 0 0 0 0 0 127 0" result="hardAlpha"/>
<feOffset dy="4"/>
<feGaussianBlur stdDeviation="3.85"/>
<feComposite in2="hardAlpha" operator="out"/>
<feColorMatrix type="matrix" values="0 0 0 0 0.392079 0 0 0 0 0.539904 0 0 0 0 0.279037 0 0 0 1 0"/>
<feBlend mode="normal" in2="BackgroundImageFix" result="effect1_dropShadow_54_580"/>
<feBlend mode="normal" in="SourceGraphic" in2="effect1_dropShadow_54_580" result="shape"/>
</filter>
<filter id="filter14_f_54_580" x="171.198" y="16.4411" width="131.04" height="155.558" filterUnits="userSpaceOnUse" color-interpolation-filters="sRGB">
<feFlood flood-opacity="0" result="BackgroundImageFix"/>
<feBlend mode="normal" in="SourceGraphic" in2="BackgroundImageFix" result="shape"/>
<feGaussianBlur stdDeviation="3.45" result="effect1_foregroundBlur_54_580"/>
</filter>
<filter id="filter15_i_54_580" x="191.084" y="23.3411" width="106.127" height="93.1604" filterUnits="userSpaceOnUse" color-interpolation-filters="sRGB">
<feFlood flood-opacity="0" result="BackgroundImageFix"/>
<feBlend mode="normal" in="SourceGraphic" in2="BackgroundImageFix" result="shape"/>
<feColorMatrix in="SourceAlpha" type="matrix" values="0 0 0 0 0 0 0 0 0 0 0 0 0 0 0 0 0 0 127 0" result="hardAlpha"/>
<feOffset dx="17" dy="4"/>
<feGaussianBlur stdDeviation="16.05"/>
<feComposite in2="hardAlpha" operator="arithmetic" k2="-1" k3="1"/>
<feColorMatrix type="matrix" values="0 0 0 0 0.972549 0 0 0 0 0.321569 0 0 0 0 0.505882 0 0 0 1 0"/>
<feBlend mode="normal" in2="shape" result="effect1_innerShadow_54_580"/>
</filter>
<filter id="filter16_i_54_580" x="178.098" y="25.8801" width="102.894" height="100.683" filterUnits="userSpaceOnUse" color-interpolation-filters="sRGB">
<feFlood flood-opacity="0" result="BackgroundImageFix"/>
<feBlend mode="normal" in="SourceGraphic" in2="BackgroundImageFix" result="shape"/>
<feColorMatrix in="SourceAlpha" type="matrix" values="0 0 0 0 0 0 0 0 0 0 0 0 0 0 0 0 0 0 127 0" result="hardAlpha"/>
<feOffset dx="17" dy="4"/>
<feGaussianBlur stdDeviation="16.05"/>
<feComposite in2="hardAlpha" operator="arithmetic" k2="-1" k3="1"/>
<feColorMatrix type="matrix" values="0 0 0 0 0.972549 0 0 0 0 0.321569 0 0 0 0 0.505882 0 0 0 1 0"/>
<feBlend mode="normal" in2="shape" result="effect1_innerShadow_54_580"/>
</filter>
<filter id="filter17_i_54_580" x="209.13" y="25.8777" width="102.894" height="100.683" filterUnits="userSpaceOnUse" color-interpolation-filters="sRGB">
<feFlood flood-opacity="0" result="BackgroundImageFix"/>
<feBlend mode="normal" in="SourceGraphic" in2="BackgroundImageFix" result="shape"/>
<feColorMatrix in="SourceAlpha" type="matrix" values="0 0 0 0 0 0 0 0 0 0 0 0 0 0 0 0 0 0 127 0" result="hardAlpha"/>
<feOffset dx="17" dy="4"/>
<feGaussianBlur stdDeviation="16.05"/>
<feComposite in2="hardAlpha" operator="arithmetic" k2="-1" k3="1"/>
<feColorMatrix type="matrix" values="0 0 0 0 0.972549 0 0 0 0 0.321569 0 0 0 0 0.505882 0 0 0 1 0"/>
<feBlend mode="normal" in2="shape" result="effect1_innerShadow_54_580"/>
</filter>
<filter id="filter18_i_54_580" x="178.498" y="48.7693" width="141.839" height="116.33" filterUnits="userSpaceOnUse" color-interpolation-filters="sRGB">
<feFlood flood-opacity="0" result="BackgroundImageFix"/>
<feBlend mode="normal" in="SourceGraphic" in2="BackgroundImageFix" result="shape"/>
<feColorMatrix in="SourceAlpha" type="matrix" values="0 0 0 0 0 0 0 0 0 0 0 0 0 0 0 0 0 0 127 0" result="hardAlpha"/>
<feOffset dx="25" dy="-16"/>
<feGaussianBlur stdDeviation="16.05"/>
<feComposite in2="hardAlpha" operator="arithmetic" k2="-1" k3="1"/>
<feColorMatrix type="matrix" values="0 0 0 0 0.972549 0 0 0 0 0.321569 0 0 0 0 0.505882 0 0 0 1 0"/>
<feBlend mode="normal" in2="shape" result="effect1_innerShadow_54_580"/>
</filter>
<filter id="filter19_i_54_580" x="38.6732" y="343.231" width="399.357" height="75.1431" filterUnits="userSpaceOnUse" color-interpolation-filters="sRGB">
<feFlood flood-opacity="0" result="BackgroundImageFix"/>
<feBlend mode="normal" in="SourceGraphic" in2="BackgroundImageFix" result="shape"/>
<feColorMatrix in="SourceAlpha" type="matrix" values="0 0 0 0 0 0 0 0 0 0 0 0 0 0 0 0 0 0 127 0" result="hardAlpha"/>
<feOffset dx="22" dy="-6"/>
<feGaussianBlur stdDeviation="19.9"/>
<feComposite in2="hardAlpha" operator="arithmetic" k2="-1" k3="1"/>
<feColorMatrix type="matrix" values="0 0 0 0 0.360577 0 0 0 0 0.21756 0 0 0 0 0.169887 0 0 0 1 0"/>
<feBlend mode="normal" in2="shape" result="effect1_innerShadow_54_580"/>
</filter>
<linearGradient id="paint0_linear_54_580" x1="425.71" y1="246.959" x2="393.503" y2="302.533" gradientUnits="userSpaceOnUse">
<stop stop-color="#A7FD65"/>
<stop offset="1" stop-color="#7BB251"/>
</linearGradient>
<linearGradient id="paint1_linear_54_580" x1="425.71" y1="246.959" x2="393.503" y2="302.533" gradientUnits="userSpaceOnUse">
<stop stop-color="#A7FD65"/>
<stop offset="1" stop-color="#7BB251"/>
</linearGradient>
<linearGradient id="paint2_linear_54_580" x1="422.633" y1="249.362" x2="368.724" y2="339.599" gradientUnits="userSpaceOnUse">
<stop stop-color="#A7FD65"/>
<stop offset="0.610577" stop-color="#648A47"/>
</linearGradient>
<linearGradient id="paint3_linear_54_580" x1="355.763" y1="178.131" x2="355.763" y2="369.154" gradientUnits="userSpaceOnUse">
<stop stop-color="#59CE00"/>
<stop offset="1" stop-color="#7BB251"/>
</linearGradient>
<linearGradient id="paint4_linear_54_580" x1="366.234" y1="98.7072" x2="366.234" y2="200.257" gradientUnits="userSpaceOnUse">
<stop stop-color="#FE97A1"/>
<stop offset="1" stop-color="#F85281"/>
</linearGradient>
<linearGradient id="paint5_linear_54_580" x1="297.972" y1="170.784" x2="265.764" y2="226.358" gradientUnits="userSpaceOnUse">
<stop stop-color="#A7FD65"/>
<stop offset="1" stop-color="#7BB251"/>
</linearGradient>
<linearGradient id="paint6_linear_54_580" x1="297.972" y1="170.784" x2="265.764" y2="226.358" gradientUnits="userSpaceOnUse">
<stop stop-color="#A7FD65"/>
<stop offset="1" stop-color="#7BB251"/>
</linearGradient>
<linearGradient id="paint7_linear_54_580" x1="294.894" y1="173.187" x2="240.986" y2="263.425" gradientUnits="userSpaceOnUse">
<stop stop-color="#A7FD65"/>
<stop offset="0.610577" stop-color="#648A47"/>
</linearGradient>
<linearGradient id="paint8_linear_54_580" x1="170.236" y1="270.397" x2="202.443" y2="325.971" gradientUnits="userSpaceOnUse">
<stop stop-color="#A7FD65"/>
<stop offset="1" stop-color="#7BB251"/>
</linearGradient>
<linearGradient id="paint9_linear_54_580" x1="170.236" y1="270.397" x2="202.443" y2="325.971" gradientUnits="userSpaceOnUse">
<stop stop-color="#A7FD65"/>
<stop offset="1" stop-color="#7BB251"/>
</linearGradient>
<linearGradient id="paint10_linear_54_580" x1="173.314" y1="272.8" x2="227.222" y2="363.038" gradientUnits="userSpaceOnUse">
<stop stop-color="#A7FD65"/>
<stop offset="0.610577" stop-color="#648A47"/>
</linearGradient>
<linearGradient id="paint11_linear_54_580" x1="107.833" y1="98.7078" x2="107.833" y2="200.257" gradientUnits="userSpaceOnUse">
<stop stop-color="#FE97A1"/>
<stop offset="1" stop-color="#F85281"/>
</linearGradient>
<linearGradient id="paint12_linear_54_580" x1="48.3567" y1="223.521" x2="80.564" y2="279.094" gradientUnits="userSpaceOnUse">
<stop stop-color="#A7FD65"/>
<stop offset="1" stop-color="#7BB251"/>
</linearGradient>
<linearGradient id="paint13_linear_54_580" x1="51.4345" y1="225.924" x2="105.343" y2="316.161" gradientUnits="userSpaceOnUse">
<stop stop-color="#A7FD65"/>
<stop offset="0.610577" stop-color="#648A47"/>
</linearGradient>
<linearGradient id="paint14_linear_54_580" x1="236.744" y1="63.5503" x2="236.744" y2="165.099" gradientUnits="userSpaceOnUse">
<stop stop-color="#FE97A1"/>
<stop offset="1" stop-color="#F85281"/>
</linearGradient>
</defs>
</svg>
